<?xml version="1.0" encoding="utf-8"?>
<!-- Generator: Adobe Illustrator 23.1.0, SVG Export Plug-In . SVG Version: 6.00 Build 0)  -->
<svg version="1.1" id="暂无内容" xmlns="http://www.w3.org/2000/svg" xmlns:xlink="http://www.w3.org/1999/xlink" x="0px"
	 y="0px" viewBox="0 0 800 800" style="enable-background:new 0 0 800 800;" xml:space="preserve">
<style type="text/css">
	.st0{fill:url(#SVGID_1_);}
	.st1{fill:url(#SVGID_2_);}
	.st2{fill:url(#SVGID_3_);}
	.st3{fill:url(#SVGID_4_);}
	.st4{fill:url(#SVGID_5_);}
	.st5{fill:url(#SVGID_6_);}
	.st6{fill:url(#SVGID_7_);}
	.st7{fill:url(#SVGID_8_);}
	.st8{fill:url(#SVGID_9_);}
	.st9{fill:url(#SVGID_10_);}
	.st10{fill:url(#SVGID_11_);}
	.st11{fill:url(#SVGID_12_);}
	.st12{fill:#F4AFAE;}
	.st13{fill:url(#SVGID_13_);}
	.st14{fill:url(#SVGID_14_);}
	.st15{fill:url(#SVGID_15_);}
	.st16{fill:#FFFFFF;}
	.st17{fill:#FC7070;}
	.st18{fill:#FADAD4;}
	.st19{fill:url(#SVGID_16_);}
	.st20{fill:none;stroke:#2EA7E0;stroke-miterlimit:10;}
	.st21{fill:url(#SVGID_17_);}
	.st22{fill:#FFDCEE;}
	.st23{fill:url(#SVGID_18_);}
	.st24{fill:#4C2C00;}
	.st25{fill:#F48484;}
	.st26{fill:#F7B7B7;}
	.st27{fill:url(#SVGID_19_);}
	.st28{fill:url(#SVGID_20_);}
	.st29{fill:url(#SVGID_21_);}
	.st30{fill:url(#SVGID_22_);}
	.st31{fill:url(#SVGID_23_);}
	.st32{fill:url(#SVGID_24_);}
	.st33{fill:url(#SVGID_25_);}
	.st34{fill:url(#SVGID_26_);}
	.st35{fill:url(#SVGID_27_);}
	.st36{fill:url(#SVGID_28_);}
	.st37{fill:url(#SVGID_29_);}
	.st38{fill:url(#SVGID_30_);}
	.st39{fill:url(#SVGID_31_);}
	.st40{fill:url(#SVGID_32_);}
	.st41{fill:url(#SVGID_33_);}
	.st42{fill:url(#SVGID_34_);}
	.st43{fill:url(#SVGID_35_);}
	.st44{fill:url(#SVGID_36_);}
	.st45{fill:url(#SVGID_37_);}
	.st46{fill:url(#SVGID_38_);}
	.st47{fill:url(#SVGID_39_);}
	.st48{fill:url(#SVGID_40_);}
	.st49{fill:#F6F5F0;}
	.st50{fill:#F0EDE1;}
	.st51{fill:url(#SVGID_41_);}
	.st52{fill:url(#SVGID_42_);}
	.st53{fill:url(#SVGID_43_);}
	.st54{fill:url(#SVGID_44_);}
	.st55{fill:url(#SVGID_45_);}
	.st56{fill:url(#SVGID_46_);}
	.st57{fill:url(#SVGID_47_);}
	.st58{fill:url(#SVGID_48_);}
	.st59{fill:url(#SVGID_49_);}
	.st60{fill:url(#SVGID_50_);}
	.st61{fill:url(#SVGID_51_);}
	.st62{fill:url(#SVGID_52_);}
	.st63{fill:url(#SVGID_53_);}
	.st64{fill:url(#SVGID_54_);}
	.st65{fill:url(#SVGID_55_);}
	.st66{fill:url(#SVGID_56_);}
	.st67{fill:url(#SVGID_57_);}
	.st68{fill:url(#SVGID_58_);}
	.st69{fill:url(#SVGID_59_);}
	.st70{fill:url(#SVGID_60_);}
	.st71{fill:#F79C9B;}
	.st72{fill:url(#SVGID_61_);}
	.st73{fill:url(#SVGID_62_);}
	.st74{fill:url(#SVGID_63_);}
	.st75{fill:url(#SVGID_64_);}
	.st76{fill:url(#SVGID_65_);}
	.st77{fill:url(#SVGID_66_);}
	.st78{fill:url(#SVGID_67_);}
	.st79{fill:url(#SVGID_68_);}
	.st80{fill:url(#SVGID_69_);}
	.st81{fill:url(#SVGID_70_);}
	.st82{fill:url(#SVGID_71_);}
	.st83{fill:url(#SVGID_72_);}
	.st84{fill:url(#SVGID_73_);}
	.st85{fill:url(#SVGID_74_);}
	.st86{fill:url(#SVGID_75_);}
	.st87{fill:#EF6563;}
	.st88{fill:url(#SVGID_76_);}
	.st89{fill:#F18C8A;}
	.st90{fill:#F9C3C0;}
	.st91{fill:url(#SVGID_77_);}
	.st92{fill:url(#SVGID_78_);}
	.st93{fill:url(#SVGID_79_);}
	.st94{fill:url(#SVGID_80_);}
	.st95{fill:url(#SVGID_81_);}
	.st96{fill:url(#SVGID_82_);}
	.st97{fill:url(#SVGID_83_);}
	.st98{fill:url(#SVGID_84_);}
	.st99{fill:url(#SVGID_85_);}
	.st100{fill:url(#SVGID_86_);}
	.st101{fill:url(#SVGID_87_);}
	.st102{fill:url(#SVGID_88_);}
	.st103{fill:url(#SVGID_89_);}
	.st104{fill:url(#SVGID_90_);}
	.st105{fill:url(#SVGID_91_);}
	.st106{fill:url(#SVGID_92_);}
	.st107{fill:url(#SVGID_93_);}
	.st108{fill:url(#SVGID_94_);}
	.st109{fill:url(#SVGID_95_);}
	.st110{fill:url(#SVGID_96_);}
	.st111{fill:url(#SVGID_97_);}
	.st112{fill:url(#SVGID_98_);}
	.st113{fill:url(#SVGID_99_);}
	.st114{fill:url(#SVGID_100_);}
	.st115{fill:url(#SVGID_101_);}
	.st116{fill:url(#SVGID_102_);}
	.st117{fill:url(#SVGID_103_);}
	.st118{fill:#F4BAD9;}
	.st119{fill:url(#SVGID_104_);}
	.st120{fill:url(#SVGID_105_);}
	.st121{fill:url(#SVGID_106_);}
	.st122{fill:url(#SVGID_107_);}
	.st123{fill:url(#SVGID_108_);}
	.st124{fill:url(#SVGID_109_);}
	.st125{fill:url(#SVGID_110_);}
	.st126{fill:url(#SVGID_111_);}
	.st127{fill:url(#SVGID_112_);}
	.st128{fill:url(#SVGID_113_);}
	.st129{fill:url(#SVGID_114_);}
	.st130{fill:url(#SVGID_115_);}
	.st131{fill:url(#SVGID_116_);}
	.st132{fill:url(#SVGID_117_);}
	.st133{fill:url(#SVGID_118_);}
	.st134{fill:#F37170;}
	.st135{fill:#F5AEAD;}
	.st136{fill:url(#SVGID_119_);}
	.st137{fill:url(#SVGID_120_);}
	.st138{fill:url(#SVGID_121_);}
	.st139{fill:url(#SVGID_122_);}
	.st140{fill:url(#SVGID_123_);}
	.st141{fill:url(#SVGID_124_);}
	.st142{fill:url(#SVGID_125_);}
	.st143{fill:url(#SVGID_126_);}
	.st144{fill:url(#SVGID_127_);}
	.st145{fill:url(#SVGID_128_);}
	.st146{fill:url(#SVGID_129_);}
	.st147{fill:url(#SVGID_130_);}
	.st148{fill:url(#SVGID_131_);}
	.st149{fill:url(#SVGID_132_);}
	.st150{fill:url(#SVGID_133_);}
	.st151{fill:url(#SVGID_134_);}
	.st152{fill:url(#SVGID_135_);}
	.st153{fill:url(#SVGID_136_);}
	.st154{fill:url(#SVGID_137_);}
	.st155{fill:url(#SVGID_138_);}
	.st156{fill:url(#SVGID_139_);}
	.st157{fill:#F68382;}
	.st158{fill:#F7F8F8;}
	.st159{fill:#E86867;}
	.st160{fill:#B6DFFF;}
	.st161{fill:none;stroke:#4C2C00;stroke-width:6;stroke-linecap:round;stroke-miterlimit:10;}
	.st162{fill:url(#SVGID_140_);}
	.st163{fill:url(#SVGID_141_);}
	.st164{fill:url(#SVGID_142_);}
	.st165{fill:url(#SVGID_143_);}
	.st166{fill:url(#SVGID_144_);}
	.st167{fill:url(#SVGID_145_);}
	.st168{fill:url(#SVGID_146_);}
	.st169{fill:url(#SVGID_147_);}
	.st170{fill:url(#SVGID_148_);}
	.st171{fill:url(#SVGID_149_);}
	.st172{fill:url(#SVGID_150_);}
	.st173{fill:url(#SVGID_151_);}
	.st174{fill:url(#SVGID_152_);}
	.st175{fill:url(#SVGID_153_);}
	.st176{fill:url(#SVGID_154_);}
	.st177{fill:url(#SVGID_155_);}
	.st178{fill:url(#SVGID_156_);}
	.st179{fill:#F79B9A;}
	.st180{fill:url(#SVGID_157_);}
	.st181{fill:url(#SVGID_158_);}
	.st182{fill:url(#SVGID_159_);}
	.st183{fill:url(#SVGID_160_);}
	.st184{fill:url(#SVGID_161_);}
	.st185{fill:url(#SVGID_162_);}
	.st186{fill:url(#SVGID_163_);}
	.st187{fill:url(#SVGID_164_);}
	.st188{fill:url(#SVGID_165_);}
	.st189{fill:url(#SVGID_166_);}
	.st190{fill:url(#SVGID_167_);}
	.st191{fill:url(#SVGID_168_);}
	.st192{fill:url(#SVGID_169_);}
	.st193{fill:url(#SVGID_170_);}
	.st194{fill:url(#SVGID_171_);}
	.st195{fill:url(#SVGID_172_);}
	.st196{fill:url(#SVGID_173_);}
	.st197{fill:url(#SVGID_174_);}
	.st198{fill:url(#SVGID_175_);}
	.st199{fill:url(#SVGID_176_);}
	.st200{fill:url(#SVGID_177_);}
	.st201{fill:url(#SVGID_178_);}
	.st202{fill:url(#SVGID_179_);}
	.st203{fill:url(#SVGID_180_);}
	.st204{fill:url(#SVGID_181_);}
	.st205{fill:url(#SVGID_182_);}
	.st206{fill:url(#SVGID_183_);}
	.st207{fill:url(#SVGID_184_);}
	.st208{fill:url(#SVGID_185_);}
	.st209{fill:url(#SVGID_186_);}
	.st210{fill:url(#SVGID_187_);}
	.st211{fill:#EA6E6D;}
	.st212{fill:#F47E7D;}
	.st213{fill:#F48E8D;}
	.st214{fill:url(#SVGID_188_);}
	.st215{fill:url(#SVGID_189_);}
	.st216{fill:url(#SVGID_190_);}
	.st217{fill:url(#SVGID_191_);}
	.st218{fill:url(#SVGID_192_);}
	.st219{fill:url(#SVGID_193_);}
	.st220{fill:url(#SVGID_194_);}
	.st221{fill:url(#SVGID_195_);}
	.st222{fill:url(#SVGID_196_);}
	.st223{fill:url(#SVGID_197_);}
	.st224{fill:url(#SVGID_198_);}
	.st225{fill:url(#SVGID_199_);}
	.st226{fill:url(#SVGID_200_);}
	.st227{fill:url(#SVGID_201_);}
	.st228{fill:url(#SVGID_202_);}
	.st229{fill:url(#SVGID_203_);}
	.st230{fill:url(#SVGID_204_);}
	.st231{fill:url(#SVGID_205_);}
	.st232{fill:url(#SVGID_206_);}
	.st233{fill:url(#SVGID_207_);}
	.st234{fill:url(#SVGID_208_);}
	.st235{fill:url(#SVGID_209_);}
	.st236{fill:url(#SVGID_210_);}
	.st237{fill:url(#SVGID_211_);}
	.st238{fill:url(#SVGID_212_);}
	.st239{fill:url(#SVGID_213_);}
	.st240{fill:url(#SVGID_214_);}
	.st241{fill:url(#SVGID_215_);}
	.st242{fill:url(#SVGID_216_);}
	.st243{fill:url(#SVGID_217_);}
	.st244{fill:url(#SVGID_218_);}
	.st245{fill:url(#SVGID_219_);}
	.st246{fill:url(#SVGID_220_);}
	.st247{fill:url(#SVGID_221_);}
	.st248{fill:url(#SVGID_222_);}
	.st249{fill:url(#SVGID_223_);}
	.st250{fill:url(#SVGID_224_);}
	.st251{fill:url(#SVGID_225_);}
	.st252{fill:url(#SVGID_226_);}
</style>
<g>
	<g>
		<g>
			<g>
				<linearGradient id="SVGID_1_" gradientUnits="userSpaceOnUse" x1="224.2433" y1="174.0197" x2="332.9504" y2="174.0197">
					<stop  offset="0" style="stop-color:#FFF2F0"/>
					<stop  offset="1" style="stop-color:#FADAD4"/>
				</linearGradient>
				<path class="st0" d="M235.22,174.31l64.81,37.42c10.5,6.06,23.92,2.46,29.97-8.03l0,0c6.06-10.5,2.46-23.92-8.03-29.97
					l-64.81-37.42c-10.5-6.06-23.92-2.46-29.97,8.03l0,0C221.13,154.83,224.72,168.25,235.22,174.31z"/>
				<linearGradient id="SVGID_2_" gradientUnits="userSpaceOnUse" x1="634.6241" y1="543.9202" x2="743.3312" y2="543.9202">
					<stop  offset="0" style="stop-color:#FFF2F0"/>
					<stop  offset="1" style="stop-color:#FADAD4"/>
				</linearGradient>
				<path class="st1" d="M732.36,543.63l-64.81-37.42c-10.5-6.06-23.92-2.46-29.97,8.03l0,0c-6.06,10.5-2.46,23.92,8.03,29.97
					l64.81,37.42c10.5,6.06,23.92,2.46,29.97-8.03C746.45,563.11,742.85,549.69,732.36,543.63z"/>
				<linearGradient id="SVGID_3_" gradientUnits="userSpaceOnUse" x1="34.1133" y1="281.9236" x2="117.9603" y2="281.9236">
					<stop  offset="0" style="stop-color:#FFF2F0"/>
					<stop  offset="1" style="stop-color:#FADAD4"/>
				</linearGradient>
				<path class="st2" d="M42.41,281.67l50.65,29.24c7.94,4.58,18.09,1.86,22.67-6.07l0,0c4.58-7.94,1.86-18.09-6.07-22.67
					l-50.65-29.24c-7.94-4.58-18.09-1.86-22.67,6.07C31.76,266.94,34.48,277.09,42.41,281.67z"/>
				<linearGradient id="SVGID_4_" gradientUnits="userSpaceOnUse" x1="481.8556" y1="133.3631" x2="565.7025" y2="133.3631">
					<stop  offset="0" style="stop-color:#FFF2F0"/>
					<stop  offset="1" style="stop-color:#FADAD4"/>
				</linearGradient>
				<path class="st3" d="M490.16,133.11l50.65,29.24c7.94,4.58,18.09,1.86,22.67-6.07l0,0c4.58-7.94,1.86-18.09-6.07-22.67
					l-50.65-29.24c-7.94-4.58-18.09-1.86-22.67,6.07C479.5,118.38,482.22,128.53,490.16,133.11z"/>
				<linearGradient id="SVGID_5_" gradientUnits="userSpaceOnUse" x1="688.9777" y1="382.8516" x2="772.8246" y2="382.8516">
					<stop  offset="0" style="stop-color:#FFF2F0"/>
					<stop  offset="1" style="stop-color:#FADAD4"/>
				</linearGradient>
				<path class="st4" d="M764.52,383.1l-50.65-29.24c-7.94-4.58-18.09-1.86-22.67,6.07c-4.58,7.94-1.86,18.09,6.07,22.67
					l50.65,29.24c7.94,4.58,18.09,1.86,22.67-6.07h0C775.18,397.83,772.46,387.68,764.52,383.1z"/>
				<linearGradient id="SVGID_6_" gradientUnits="userSpaceOnUse" x1="646.907" y1="452.8821" x2="723.2679" y2="452.8821">
					<stop  offset="0" style="stop-color:#FFF2F0"/>
					<stop  offset="1" style="stop-color:#FADAD4"/>
				</linearGradient>
				<path class="st5" d="M647.49,431.17L647.49,431.17c-1.19,2.06-0.48,4.7,1.58,5.89l67.74,39.11c2.06,1.19,4.7,0.48,5.89-1.58
					c1.19-2.06,0.48-4.7-1.58-5.89l-67.74-39.11C651.31,428.4,648.68,429.11,647.49,431.17z"/>
				<linearGradient id="SVGID_7_" gradientUnits="userSpaceOnUse" x1="151.9596" y1="255.9162" x2="228.3205" y2="255.9162">
					<stop  offset="0" style="stop-color:#FFF2F0"/>
					<stop  offset="1" style="stop-color:#FADAD4"/>
				</linearGradient>
				<path class="st6" d="M154.12,240.1l67.74,39.11c2.06,1.19,4.7,0.48,5.89-1.58c1.19-2.06,0.48-4.7-1.58-5.89l-67.74-39.11
					c-2.06-1.19-4.7-0.48-5.89,1.58C151.35,236.27,152.05,238.91,154.12,240.1z"/>
				<linearGradient id="SVGID_8_" gradientUnits="userSpaceOnUse" x1="36.7353" y1="503.2635" x2="65.0555" y2="503.2635">
					<stop  offset="0" style="stop-color:#FFF2F0"/>
					<stop  offset="1" style="stop-color:#FADAD4"/>
				</linearGradient>
				<path class="st7" d="M63.42,506.71l-8.04-4.64l4.64-8.04c0.91-1.57,0.37-3.57-1.2-4.48c-1.57-0.91-3.57-0.37-4.48,1.2
					l-4.64,8.04l-8.04-4.64c-1.57-0.91-3.57-0.37-4.48,1.2s-0.37,3.57,1.2,4.48l8.04,4.64l-4.64,8.04c-0.91,1.57-0.37,3.57,1.2,4.48
					s3.57,0.37,4.48-1.2l4.64-8.04l8.04,4.64c1.57,0.91,3.57,0.37,4.48-1.2C65.52,509.62,64.98,507.61,63.42,506.71z"/>
				<linearGradient id="SVGID_9_" gradientUnits="userSpaceOnUse" x1="391.2374" y1="174.0196" x2="467.5982" y2="174.0196">
					<stop  offset="0" style="stop-color:#FFF2F0"/>
					<stop  offset="1" style="stop-color:#FADAD4"/>
				</linearGradient>
				<path class="st8" d="M393.39,158.2l67.74,39.11c2.06,1.19,4.7,0.48,5.89-1.58c1.19-2.06,0.48-4.7-1.58-5.89l-67.74-39.11
					c-2.06-1.19-4.7-0.48-5.89,1.58l0,0C390.63,154.37,391.33,157.01,393.39,158.2z"/>
				<linearGradient id="SVGID_10_" gradientUnits="userSpaceOnUse" x1="627.6199" y1="211.7769" x2="649.3855" y2="211.7769">
					<stop  offset="0" style="stop-color:#FFF2F0"/>
					<stop  offset="1" style="stop-color:#FADAD4"/>
				</linearGradient>
				<path class="st9" d="M638.5,222.66c6,0,10.88-4.88,10.88-10.88c0-6-4.88-10.88-10.88-10.88s-10.88,4.88-10.88,10.88
					C627.62,217.78,632.5,222.66,638.5,222.66z M638.5,203.89c4.35,0,7.88,3.54,7.88,7.88s-3.54,7.88-7.88,7.88
					s-7.88-3.54-7.88-7.88S634.16,203.89,638.5,203.89z"/>
				<linearGradient id="SVGID_11_" gradientUnits="userSpaceOnUse" x1="97.6307" y1="150.1535" x2="117.9603" y2="150.1535">
					<stop  offset="0" style="stop-color:#FFF2F0"/>
					<stop  offset="1" style="stop-color:#FADAD4"/>
				</linearGradient>
				<path class="st10" d="M107.8,160.32c5.6,0,10.17-4.56,10.17-10.16s-4.56-10.16-10.17-10.16c-5.6,0-10.16,4.56-10.16,10.16
					S102.19,160.32,107.8,160.32z M107.8,142.99c3.95,0,7.17,3.21,7.17,7.16s-3.21,7.16-7.17,7.16s-7.16-3.21-7.16-7.16
					S103.84,142.99,107.8,142.99z"/>
				<linearGradient id="SVGID_12_" gradientUnits="userSpaceOnUse" x1="713.8851" y1="269.5658" x2="732.6508" y2="269.5658">
					<stop  offset="0" style="stop-color:#FFF2F0"/>
					<stop  offset="1" style="stop-color:#FADAD4"/>
				</linearGradient>
				<path class="st11" d="M723.27,278.95c5.18,0,9.38-4.2,9.38-9.38c0-5.18-4.2-9.38-9.38-9.38s-9.38,4.2-9.38,9.38
					C713.89,274.75,718.09,278.95,723.27,278.95z"/>
				<g>
					<path class="st12" d="M700.55,616.21H79.1c-2.76,0-5,2.24-5,5s2.24,5,5,5h621.45c2.76,0,5-2.24,5-5
						S703.31,616.21,700.55,616.21z"/>
				</g>
				<g>
					<path class="st12" d="M737.31,616.21h-15.06c-2.76,0-5,2.24-5,5s2.24,5,5,5h15.06c2.76,0,5-2.24,5-5
						S740.07,616.21,737.31,616.21z"/>
				</g>
				<g>
					<path class="st12" d="M479.18,651.7H325.99c-2.76,0-5,2.24-5,5c0,2.76,2.24,5,5,5h153.19c2.76,0,5-2.24,5-5
						C484.18,653.94,481.95,651.7,479.18,651.7z"/>
				</g>
				<g>
					<path class="st12" d="M510.91,652.28h-14.87c-2.76,0-5,2.24-5,5s2.24,5,5,5h14.87c2.76,0,5-2.24,5-5
						S513.67,652.28,510.91,652.28z"/>
				</g>
				<g>
					<path class="st12" d="M682.93,652.28H528.78c-2.76,0-5,2.24-5,5s2.24,5,5,5h154.15c2.76,0,5-2.24,5-5
						S685.69,652.28,682.93,652.28z"/>
				</g>
				<g>
					<path class="st12" d="M202.67,685.66h-15.32c-2.76,0-5,2.24-5,5s2.24,5,5,5h15.32c2.76,0,5-2.24,5-5
						S205.43,685.66,202.67,685.66z"/>
				</g>
				<g>
					<path class="st12" d="M404.14,685.66H302.71c-2.65-3.92-6.67-8.17-15.78-8.17c-7.07,0-12.19,4.35-15.01,8.17h-53.67
						c-2.76,0-5,2.24-5,5s2.24,5,5,5h56.43c1.89,0,3.63-1.07,4.47-2.76c0.03-0.05,2.84-5.41,7.78-5.41c5.17,0,6.32,1.83,8.59,5.48
						l0.21,0.34c0.91,1.46,2.52,2.35,4.24,2.35h104.17c2.76,0,5-2.24,5-5S406.9,685.66,404.14,685.66z"/>
				</g>
				<linearGradient id="SVGID_13_" gradientUnits="userSpaceOnUse" x1="82.4763" y1="416.909" x2="200.0154" y2="416.909">
					<stop  offset="0" style="stop-color:#FFF2F0"/>
					<stop  offset="1" style="stop-color:#FADAD4"/>
				</linearGradient>
				<path class="st13" d="M150.88,460.29l-52.02-30.03c-15.67-9.04-21.03-29.08-11.99-44.74l0,0c9.04-15.67,29.08-21.03,44.74-11.99
					l52.02,30.03c15.67,9.04,21.03,29.08,11.99,44.74l0,0C186.58,463.97,166.54,469.34,150.88,460.29z"/>
			</g>
		</g>
		<linearGradient id="SVGID_14_" gradientUnits="userSpaceOnUse" x1="399.6731" y1="179.511" x2="399.6731" y2="607.6815">
			<stop  offset="0.2961" style="stop-color:#FBEAE6"/>
			<stop  offset="1" style="stop-color:#F9C8C5"/>
		</linearGradient>
		<path class="st14" d="M639.27,607.68c26.32-42.79,41.51-93.15,41.51-147.06c0-155.25-125.86-281.11-281.11-281.11
			c-155.25,0-281.11,125.86-281.11,281.11c0,53.92,15.19,104.28,41.51,147.06H639.27z"/>
		<linearGradient id="SVGID_15_" gradientUnits="userSpaceOnUse" x1="399.6729" y1="243.0857" x2="399.6729" y2="607.6815">
			<stop  offset="0.2263" style="stop-color:#FFDBD9"/>
			<stop  offset="1" style="stop-color:#F79C9B"/>
		</linearGradient>
		<path class="st15" d="M559.95,607.68c35.55-38.72,57.26-90.36,57.26-147.06c0-120.14-97.39-217.53-217.53-217.53
			s-217.53,97.39-217.53,217.53c0,56.71,21.71,108.34,57.26,147.06H559.95z"/>
		<g>
			<path class="st16" d="M280.23,310.65c-5.79,0-10.5-4.71-10.5-10.5s4.71-10.5,10.5-10.5s10.5,4.71,10.5,10.5
				S286.02,310.65,280.23,310.65z M280.23,292.65c-4.14,0-7.5,3.36-7.5,7.5s3.36,7.5,7.5,7.5s7.5-3.36,7.5-7.5
				S284.36,292.65,280.23,292.65z"/>
		</g>
		<circle class="st16" cx="518.82" cy="378.66" r="4.6"/>
		<path class="st16" d="M590.51,462.29l-8.04-4.64l4.64-8.04c0.91-1.57,0.37-3.57-1.2-4.48c-1.57-0.91-3.57-0.37-4.48,1.2
			l-4.64,8.04l-8.04-4.64c-1.57-0.91-3.57-0.37-4.48,1.2s-0.37,3.57,1.2,4.48l8.04,4.64l-4.64,8.04c-0.91,1.57-0.37,3.57,1.2,4.48
			s3.57,0.37,4.48-1.2l4.64-8.04l8.04,4.64c1.57,0.91,3.57,0.37,4.48-1.2C592.62,465.2,592.08,463.19,590.51,462.29z"/>
		<path class="st16" d="M239.93,476.45l-8.04-4.64l4.64-8.04c0.91-1.57,0.37-3.57-1.2-4.48c-1.57-0.91-3.57-0.37-4.48,1.2
			l-4.64,8.04l-8.04-4.64c-1.57-0.91-3.57-0.37-4.48,1.2s-0.37,3.57,1.2,4.48l8.04,4.64l-4.64,8.04c-0.91,1.57-0.37,3.57,1.2,4.48
			s3.57,0.37,4.48-1.2l4.64-8.04l8.04,4.64c1.57,0.91,3.57,0.37,4.48-1.2C242.03,479.36,241.5,477.35,239.93,476.45z"/>
	</g>
	<g>
		<linearGradient id="SVGID_16_" gradientUnits="userSpaceOnUse" x1="571.2302" y1="274.4081" x2="350.1032" y2="657.4112">
			<stop  offset="0.2067" style="stop-color:#F7A2A1"/>
			<stop  offset="0.8045" style="stop-color:#FFFFFF"/>
		</linearGradient>
		<polygon class="st19" points="444.54,243.25 220.45,582.55 394.66,572.72 578.37,561.48 623.12,304.36 		"/>
		<path class="st49" d="M338.29,510.14c0,0-77.98-18.26-126.45,1.08c-48.47,19.35-23.01,57.46-6.15,56.4
			c15.07-0.94,27.57-4.8,50.76-14.78c23.18-9.98,33.72-19.18,75.87-18.62C343.56,518.63,338.29,510.14,338.29,510.14z"/>
		<path class="st22" d="M329.86,516.17c0,0-49.53-5.44-80.96-1.58c-31.44,3.86-41.62,14.58-39.52,24.94
			c2.11,10.36,11.94,7.73,23.53,3.86c11.59-3.86,74.99-24.06,95.01-18.09C330.56,517.92,329.86,516.17,329.86,516.17z"/>
		<path class="st49" d="M337.82,558.2c0,0-59.24-7.96-98.58,6.79s-51.98,29.27-42.85,55.26c9.13,25.99,39.81,9.13,56.2-2.81
			s62.69-36.76,99.13-31.14C353.51,567.1,337.82,558.2,337.82,558.2z"/>
		<path class="st22" d="M334.31,564.99c0,0-58.54,0.47-87.81,10.07c-29.27,9.6-32.55,18.97-29.04,28.8s12.41,5.85,25.76-1.4
			c13.35-7.26,55.97-31.14,91.09-28.1C339.69,568.03,334.31,564.99,334.31,564.99z"/>
		<polygon class="st211" points="581,183.18 591.89,163.34 598.21,167.03 588.38,189.51 		"/>
		<path class="st179" d="M501.74,204.38c0,0,7.49-25.52,37-30.21s60.65,5.39,79.38,34.42c4.68,7.96,12.64,25.52,3.28,46.13
			C590.02,233.65,501.74,204.38,501.74,204.38z"/>
		<circle class="st212" cx="599.09" cy="159.83" r="12.64"/>
		
			<ellipse transform="matrix(0.4029 -0.9152 0.9152 0.4029 86.3308 651.4323)" class="st134" cx="542.44" cy="259.55" rx="46.82" ry="137.22"/>
		
			<ellipse transform="matrix(0.4029 -0.9152 0.9152 0.4029 86.3308 651.4323)" class="st135" cx="542.44" cy="259.55" rx="27.62" ry="80.94"/>
		<g>
			<g>
				<path class="st213" d="M459.72,372.69l-8.86-3.53l-7.69,19.33l-13.8-5.49l7.69-19.33l-31.72-12.62l4.01-10.07l45.74-34.05
					l17.72,7.05l-17.47,43.9l8.86,3.53L459.72,372.69z M441.55,352.4l6.05-15.21c1.72-4.33,4.81-10.92,6.73-15.17l-0.4-0.16
					c-3.37,3.21-7.03,6.53-10.75,9.72l-18.95,13.92L441.55,352.4z"/>
				<path class="st213" d="M474.22,357.35c10.26-25.78,25.33-34.36,40.54-28.31c15.1,6.01,20.13,22.7,9.91,48.38
					c-10.22,25.68-25.58,34.96-40.68,28.95C468.79,400.33,464.01,383.03,474.22,357.35z M510.68,371.85
					c8.29-20.84,5.86-28.81-0.48-31.33c-6.45-2.56-13.68,1.55-21.98,22.4c-8.33,20.95-6.06,29.31,0.38,31.88
					C494.94,397.32,502.34,392.8,510.68,371.85z"/>
				<path class="st213" d="M578.34,419.89l-8.86-3.53l-7.69,19.33l-13.8-5.49l7.69-19.33l-31.72-12.62l4.01-10.07l45.74-34.05
					l17.72,7.05l-17.47,43.9l8.86,3.53L578.34,419.89z M560.17,399.6l6.05-15.21c1.72-4.33,4.81-10.92,6.73-15.17l-0.4-0.16
					c-3.38,3.21-7.03,6.53-10.75,9.72l-18.95,13.92L560.17,399.6z"/>
			</g>
		</g>
		<path class="st16" d="M594.46,555.68c0.7-0.76,1.99-0.7,1.81-9.43c-0.18-8.72-9.13-7.61-9.13-7.61c-3.13,0-4.43-1.49-4.16-3.16
			c2.81-15.45,4.21-50.81-8.43-58.54c-12.64-7.73-35.71,15.51-43.61,25.17c-25.99-19.85-52.16-8.61-56.02-6.93
			c-3.86,1.68-12.47-20.12-22.66-31.54c-10.19-11.42-20.37,7.03-20.37,7.03s18.09,10.01,27.36,31.65
			c12.09,45.99-27.54,85.03-27.54,85.03s-6.94,14.29-10.89,22.37c-3.95,8.07-8.61,8.66-11.94,7.08c-3.34-1.58-2.81-16.33-2.81-16.33
			l-13.7,0.53c0,0,0,17.56,6.46,32.95c6.46,15.39,16.02,9.37,21.11,6.39c18.27-13.52,31.91-41.51,37.53-51.34
			c5.62-9.83,14.99-7.84,20.26-5.03c31.61,17.21,62.52,5.03,62.52,5.03s1.17,24.35,12.29,19.79c11.12-4.57,5.39-21.66,2.22-28.69
			c4.8-3.51,8.43-7.26,9.6-10.42c1.4,2.11,4.33,4.33,7.02,5.5c-1.17,16.16-11.47,33.81-13.14,34.16c-3.95,1.58-5.44,5.71-5.09,10.01
			c1.32,9.92,7.73,26.43,12.91,31.35c5.18,4.92,8.78-0.09,9.13-1.23c0.35-1.14,0.18-2.55,1.58-1.84c4.21,1.32,4.92-2.46,5.44-3.95
			s0.44-1.58,1.23-2.2c0.79-0.61,3.86-0.44,4.92-7.38c1.05-6.94-11.42-13.35-13.7-14.49c-2.28-1.14-1.84-2.11-1.32-2.99
			c16.6-24.94,16.54-39.34,16.54-40.69c0-1.35,0.41-3.57,1.64-4.1c5.56-2.93,4.51-10.77,3.45-12.24
			C593.94,558.14,593.76,556.44,594.46,555.68z M565.08,532.56c0,0-7.96,1.52-12.76,5.03c-1.41-5.15-3.04-10.07-3.04-10.07
			s9.72-16.39,13.23-19.67c3.51-3.28,4.57-1.17,4.57,0C567.07,509.03,566.95,514.53,565.08,532.56z"/>
		<g>
			<path class="st49" d="M553.16,619.35c1.32,9.92,7.73,26.43,12.91,31.35c5.18,4.92,8.78-0.09,9.13-1.23
				c0.35-1.14,0.18-2.55,1.58-1.84c4.21,1.32,4.92-2.46,5.44-3.95s0.44-1.58,1.23-2.2c0.79-0.61,3.86-0.44,4.92-7.38
				c0.35-2.33-0.82-4.59-2.61-6.62c1.68,1.72,1.9,4.74,0.74,7.65c-1.17,2.93-4.45,2.22-5.03,4.1c0,3.86-5.5,5.27-7.03,5.27
				c-0.7,0.94-4.46,2.87-6.4,0.8c-1.93-2.06-4.26-6.78-9.88-18.48c-5.59-11.65-2.91-15.31-2.88-15.35
				C553.56,613.48,552.92,616.37,553.16,619.35z"/>
			<path class="st49" d="M552.55,608.78c11.12-4.57,5.39-21.66,2.22-28.69c4.8-3.51,8.43-7.26,9.6-10.42
				c1.4,2.11,4.33,4.33,7.02,5.5c0,0,0.91,0.7,5.82,3.6c6.59,3.42,11.06-4.3,11.24-5.8c0.18-1.49,0.26-3.25,2.28-3.78
				c4.3-1.76,2.46-7.99,1.67-9.4c-0.79-1.41-0.61-3.34,0.53-5.27c2.9-7.73-0.7-10.98-7.73-10.98c-7.02,0-10.01,1.58-14.58,0.35
				c-4.57-1.23-8.25-0.7-11.42,5.27c-3.16,5.97,0.88,13.52,2.11,16.86c0.18,3.34-7.55,7.2-15.1,12.64
				c-16.51,11.06-46.36,5.09-65.33-1.76c-18.97-6.85-23.53,1.93-25.47,4.57c-1.93,2.63-6.32,13.17-16.76,30.56
				c-10.44,17.39-18.01,23.71-26.79,26.34c-8.77,2.63-15.8-12.44-15.82-12.47c0.76,2.67,1.67,5.37,2.78,8.01
				c6.46,15.39,16.02,9.37,21.11,6.39c18.27-13.52,31.91-41.51,37.53-51.34c5.62-9.83,14.99-7.84,20.26-5.03
				c31.61,17.21,62.52,5.03,62.52,5.03S541.43,613.35,552.55,608.78z"/>
			<path class="st49" d="M459.26,502.33c12.09,45.99-27.54,85.03-27.54,85.03s-0.21,0.44-0.58,1.19c4.31-2.96,9.55-5.7,15.86-7.75
				c15.1-4.57,24.94-25.11,27.2-44.43c2.26-19.32-2.96-29.68-4.9-32.14c-1.93-2.46-2.02-3.95-1.58-4.34c0.44-0.38,7.2-4.7,7.2-4.7
				c-3.86,1.68-12.47-20.12-22.66-31.54c-10.19-11.42-20.37,7.03-20.37,7.03S449.98,480.69,459.26,502.33z"/>
			<path class="st49" d="M406.62,611.53c-0.77-4.8-0.54-11.06-0.54-11.06l-13.7,0.53c0,0,0,5.04,0.99,12.09
				C398.34,613.84,403.01,612.85,406.62,611.53z"/>
			<path class="st49" d="M549.27,527.52c0,0,9.72-16.39,13.23-19.67c2.58-2.41,3.83-1.91,4.31-1.01c0,0,0,0,0,0
				c-1.37-10.38-14.27,3.89-17.54,9.68c-3.25-5.67-17.57-15.3-17.57-15.3c-0.26,0.31-0.51,0.61-0.75,0.9
				C545.52,515.99,549.27,527.52,549.27,527.52z"/>
			<path class="st49" d="M584.17,537.96l0.02,0c-0.97-0.59-1.36-1.5-1.2-2.47c2.1-11.54,3.41-34.16-1.32-48.1
				c-1.43,16.17,0.38,35.81-0.44,41.08c-0.82,5.27-3.04,8.2-7.26,8.08s-6.44,2.22-10.77,5.85c3.16-1.87,8.43-2.34,12.53-2.34
				C579.83,540.05,584.17,537.96,584.17,537.96z"/>
			<path class="st49" d="M571.34,612.79c-1.76,1.26-2.4,1.96-1.9,2.84c0.5,0.88,3.55,2.45,3.55,2.45c-0.15-0.52,0.1-1,0.38-1.46
				c15.35-23.07,16.45-37.12,16.53-40.16C586.49,594.85,573.1,611.53,571.34,612.79z"/>
		</g>
		<g>
			<path class="st16" d="M468.81,536.54c7.9-40.65-22.33-76.92-55.35-82.89s-90.27,20.02-90.62,84.65s62.87,70.25,77.63,69.55
				C415.21,607.14,456.72,598.71,468.81,536.54z"/>
			
				<ellipse transform="matrix(0.3072 -0.9516 0.9516 0.3072 -262.558 771.8176)" class="st22" cx="398.84" cy="566.25" rx="16.76" ry="11.8"/>
			
				<ellipse transform="matrix(0.9491 -0.3149 0.3149 0.9491 -126.6331 149.4943)" class="st22" cx="399.32" cy="466.64" rx="9.89" ry="14.06"/>
			<g>
				<path class="st24" d="M356.45,511.22c-1.27,0-10.53-0.24-10.93-7.27c-0.11-1.94,0.45-3.59,1.66-4.9
					c2.53-2.74,7.05-2.87,7.24-2.88c0.73-0.02,1.39,0.58,1.41,1.34c0.02,0.76-0.58,1.39-1.34,1.41c-0.04,0-3.56,0.12-5.29,2
					c-0.69,0.75-0.99,1.69-0.93,2.87c0.27,4.77,8.17,4.67,8.26,4.67c0.01,0,0.02,0,0.03,0c0.75,0,1.36,0.6,1.37,1.35
					c0.01,0.76-0.59,1.39-1.35,1.4C356.56,511.22,356.51,511.22,356.45,511.22z"/>
			</g>
			<g>
				<path class="st24" d="M357.78,552.84c-0.05,0-0.1,0-0.15-0.01c-4.33-0.47-12.43-3.54-12.13-11.78c0.1-2.58,1.06-4.7,2.86-6.29
					c4.15-3.68,11.34-3.13,11.64-3.1c0.76,0.06,1.32,0.73,1.26,1.48c-0.06,0.76-0.71,1.32-1.48,1.26c-0.06,0-6.33-0.48-9.59,2.43
					c-1.23,1.09-1.86,2.51-1.93,4.33c-0.29,7.73,9.27,8.9,9.68,8.94c0.75,0.08,1.3,0.76,1.21,1.52
					C359.07,552.32,358.47,552.84,357.78,552.84z"/>
			</g>
			<g>
				<path class="st24" d="M378.15,507.04c-0.54,0-1.08-0.19-1.52-0.57c-0.95-0.84-1.04-2.29-0.2-3.24c5.24-5.95,5.44-9.23,5.1-10.65
					c-0.44-1.82-2.17-2.51-2.24-2.54c-1.17-0.45-1.77-1.77-1.33-2.94c0.44-1.18,1.73-1.79,2.9-1.36c1.49,0.53,4.24,2.32,5.1,5.65
					c1.06,4.09-0.99,9.1-6.09,14.88C379.42,506.78,378.79,507.04,378.15,507.04z"/>
			</g>
			<g>
				<path class="st24" d="M378.16,553.76c-0.62,0-1.23-0.25-1.68-0.74c-0.86-0.93-0.8-2.38,0.13-3.24c4.77-4.4,6.96-8.29,6.34-11.25
					c-0.75-3.58-5.48-5.25-5.53-5.27c-1.19-0.41-1.83-1.71-1.42-2.91c0.41-1.2,1.71-1.84,2.9-1.43c0.29,0.1,7.22,2.5,8.53,8.64
					c1,4.69-1.59,9.94-7.71,15.59C379.27,553.56,378.71,553.76,378.16,553.76z"/>
			</g>
			<path class="st24" d="M390.97,514.59c0,0-3.51-14.23-2.34-21.02c1.17-6.79,10.3-13.35,17.33-5.68
				c7.02,7.67,6.22,20.37,1.81,26.69C403.37,520.91,395.07,527.88,390.97,514.59z"/>
			<ellipse class="st158" cx="396.98" cy="510.14" rx="2.69" ry="4.45"/>
			<g>
				<path class="st24" d="M410.13,503.24c-0.58,0-1.17-0.17-1.66-0.51c-1.14-0.79-1.32-2.24-0.41-3.22c0.2-0.22,5.01-5.3,11.76-5.71
					c3.71-0.22,7.2,0.97,10.36,3.54c1.07,0.87,1.12,2.32,0.11,3.24c-1,0.92-2.69,0.96-3.75,0.1c-2.07-1.68-4.15-2.44-6.36-2.31
					c-4.39,0.26-7.95,3.97-7.99,4.01C411.67,502.95,410.9,503.24,410.13,503.24z"/>
			</g>
			<path class="st160" d="M405.74,490.17c0,0,24.21-35.83,12.3-66.21c-11.91-30.38-32.81-27.57-43-21.07s-21.43,22.83-6.67,40.04
				C383.11,460.14,401.84,471.56,405.74,490.17z"/>
			<path class="st25" d="M423.2,481.83c0,0,4.57,16.66,5.27,28.3c0.7,11.65,0.18,23.59-6.06,32.29c6.85,0.35,38.33-1.96,36.79-30.3
				C458.15,494.74,444.57,478.69,423.2,481.83z"/>
			<path class="st26" d="M426.33,495.24c0.97,4.85,1.86,10.27,2.14,14.89c0.5,8.31,0.36,16.76-2.01,24.09
				c22.12-2.42,26.89-11.88,23.61-26.4C447.24,495.28,431.68,494.97,426.33,495.24z"/>
			<g>
				<path class="st16" d="M426.02,499.23c4.96,0.47,16.02,1.33,16.77-0.24c0.97-2.02,1.81-13.52-3.27-14.14
					c-3.88-0.47-12.13,0.55-16.15,1.41C424.2,489.77,425.23,494.47,426.02,499.23z"/>
				<path class="st16" d="M441.91,517.96c2.2,0,2.13-3.95,2.3-7.82c0.18-3.86,0.65-9.04-4.69-8.87c-3.6,0.12-9.65-0.04-13.21-0.16
					c0.39,2.61,0.7,5.19,0.84,7.57c0.17,2.89,0.27,5.8,0.23,8.68C432.54,517.69,440.18,517.96,441.91,517.96z"/>
			</g>
		</g>
		
			<ellipse transform="matrix(0.5837 -0.812 0.812 0.5837 -169.4655 491.2234)" class="st49" cx="394.32" cy="410.88" rx="5.92" ry="10.56"/>
		
			<ellipse transform="matrix(0.6199 -0.7847 0.7847 0.6199 -220.0804 659.3845)" class="st118" cx="570.55" cy="556.85" rx="8.02" ry="9.18"/>
		
			<ellipse transform="matrix(0.984 -0.1782 0.1782 0.984 -88.5062 113.6068)" class="st118" cx="588.33" cy="549.62" rx="4.61" ry="3.34"/>
		
			<ellipse transform="matrix(0.5741 -0.8188 0.8188 0.5741 -210.1549 721.9295)" class="st118" cx="588.86" cy="562.97" rx="2.85" ry="3.94"/>
		
			<ellipse transform="matrix(0.7071 -0.7071 0.7071 0.7071 -235.2499 580.215)" class="st118" cx="582.76" cy="574.08" rx="2.85" ry="3.94"/>
	</g>
</g>
</svg>
